<?xml version="1.0" standalone="no"?>
<!DOCTYPE svg PUBLIC "-//W3C//DTD SVG 20010904//EN"
 "http://www.w3.org/TR/2001/REC-SVG-20010904/DTD/svg10.dtd">
<svg version="1.0" xmlns="http://www.w3.org/2000/svg"
 width="134.000000pt" height="266.000000pt" viewBox="0 0 134.000000 266.000000"
 preserveAspectRatio="xMidYMid meet">
<metadata>
Created by potrace 1.15, written by Peter Selinger 2001-2017
</metadata>
<g transform="translate(0.000000,266.000000) scale(0.100000,-0.100000)"
fill="#000000" stroke="none">
<path d="M401 2651 c-13 -8 -10 -19 13 -73 66 -150 97 -232 126 -344 18 -65
36 -123 41 -128 17 -19 22 5 12 59 -5 30 -6 55 -1 55 4 0 8 -13 8 -30 0 -16 5
-30 10 -30 6 0 10 -7 10 -15 0 -20 29 -19 37 2 4 9 -1 100 -10 202 -18 192
-20 227 -13 220 2 -2 10 -69 16 -149 7 -80 16 -154 21 -165 5 -11 10 -40 11
-64 3 -42 28 -73 28 -34 1 17 1 17 11 -1 8 -13 8 -25 1 -40 -6 -11 -13 -102
-17 -201 -10 -295 -44 -641 -45 -454 0 30 -7 131 -15 224 -8 94 -15 227 -15
298 0 70 -4 127 -9 127 -5 0 -19 -16 -31 -35 -25 -40 -30 -44 -23 -15 7 28
-20 26 -115 -6 -129 -43 -209 -99 -271 -189 -33 -47 -71 -145 -71 -182 0 -23
3 -25 33 -20 24 4 15 -3 -35 -27 -37 -19 -77 -36 -88 -39 -18 -5 -20 -13 -20
-82 l0 -77 70 -72 c59 -61 70 -78 70 -107 0 -60 -28 -165 -64 -249 -47 -106
-47 -152 -2 -247 48 -99 166 -294 312 -513 135 -202 178 -259 190 -247 4 4 -4
71 -19 150 -49 258 -88 582 -103 852 l-6 120 -82 80 c-85 83 -137 150 -162
210 l-14 35 88 -46 c76 -40 102 -48 191 -59 62 -8 108 -19 112 -27 14 -21 10
-138 -5 -197 -18 -64 -13 -78 48 -146 l46 -50 40 45 c68 76 73 91 55 154 -10
34 -15 82 -13 127 3 84 -5 78 143 98 62 8 99 21 168 56 48 25 87 41 87 36 0
-23 -93 -147 -170 -226 l-88 -90 -6 -120 c-18 -320 -81 -799 -126 -955 -33
-116 80 18 286 340 157 244 235 389 254 474 8 36 5 50 -26 119 -47 103 -79
233 -70 282 6 28 24 56 69 103 l62 64 0 80 0 80 -50 19 c-46 17 -50 21 -53 54
-3 53 -39 153 -72 201 -64 92 -177 164 -313 200 -55 15 -70 16 -76 5 -19 -30
-20 24 -2 78 11 31 33 102 51 159 17 57 47 138 67 180 55 121 66 154 51 164
-18 11 -520 10 -537 -1z"/>
</g>
</svg>
